<?xml version="1.0" encoding="UTF-8"?>
<svg enable-background="new 0 0 768 215" version="1.1" viewBox="0 0 768 215" xml:space="preserve" xmlns="http://www.w3.org/2000/svg">
<g fill="#a8894c">
	<path d="m166.8 30.6l-1.6 0.3-1.5 0.3-3.2 0.8-6.3 1.7c-2.1 0.5-4.1 1.1-6.2 1.7s-4.1 1.2-6.3 1.8c-4.1 1.2-8.2 2.5-12.3 3.8s-8.2 2.8-12.3 4.3c-4 1.5-8 3.1-12 4.7s-7.9 3.3-11.7 5.1c-1.9 0.9-3.8 1.8-5.7 2.8s-3.8 2-5.6 3l-5.1 3.4c-0.8 0.6-1.7 1.2-2.5 1.8s-1.7 1.2-2.5 1.8c-1.6 1.1-3.1 2.4-4.6 3.9-1.4 1.4-2.7 2.8-3.9 4.2-0.5 0.8-1 1.5-1.4 2.3s-0.7 1.6-1 2.4c-0.2 0.4-0.3 0.8-0.3 1.1-0.1 0.4-0.2 0.8-0.2 1.1-0.1 0.8-0.1 1.5 0 2.2 0.1 0.5 0.3 1.1 0.7 1.7 0.2 0.5 0.6 1 1.3 1.5 0.3 0.2 0.6 0.4 1 0.6 0.3 0.2 0.7 0.4 1.1 0.6s0.8 0.3 1.3 0.5 0.9 0.3 1.4 0.5c1.7 0.5 3.7 0.8 5.9 1 1.1 0.2 2.1 0.2 3.1 0.3 1 0 2.1 0.1 3.1 0.2 2.1 0.1 4.3 0.1 6.4 0.1s4.3-0.1 6.5-0.3 4.4-0.3 6.5-0.5 4.3-0.3 6.5-0.5l13.2-0.8c2.2-0.1 4.4-0.1 6.6-0.2 2.2 0 4.4 0 6.7 0.1 1.1 0.1 2.2 0.2 3.3 0.2 1.1 0.1 2.3 0.2 3.4 0.3 1.1 0.2 2.3 0.3 3.4 0.5s2.3 0.4 3.4 0.7c2.3 0.6 4.5 1.4 6.7 2.5 0.5 0.3 1.1 0.6 1.6 1 0.5 0.3 1 0.7 1.5 1.1s1 0.8 1.5 1.3 0.9 1 1.3 1.5c0.8 1.1 1.4 2.2 2.1 3.4 0.6 1.2 1 2.4 1.3 3.6 0.2 0.6 0.3 1.2 0.3 1.9 0.1 0.6 0.1 1.3 0.1 1.9v2.7l-0.1 0.2v0.7c-0.4 2.5-1.1 4.9-2.1 7.2-1.1 2.2-2.3 4.3-3.8 6.2-0.7 0.9-1.4 1.8-2.2 2.7s-1.6 1.7-2.5 2.6c-0.8 0.8-1.7 1.6-2.6 2.3s-1.7 1.4-2.6 2.1l-2.7 2.1s-1.9 1.3-2.9 1.9c-0.9 0.6-1.8 1.2-2.8 1.8s-1.9 1.2-2.9 1.8c-1.9 1.1-3.8 2.2-5.8 3.2s-4 2-5.9 3c-2 1-4 1.9-6 2.8-2.1 0.9-4.1 1.8-6.2 2.6-4.1 1.7-8.2 3.4-12.3 4.8-4.1 1.5-8.2 2.9-12.4 4.4-4.2 1.4-8.4 2.8-12.5 4-4.2 1.3-8.4 2.5-12.7 3.8l-12.8 3.5-6.4 1.7-6.4 1.6-6.4 1.6-6.4 1.5-6.5 1.6-4.8 1-1.7 0.3c-1.5 0.4-2.9 0.1-4.3-0.7-1.3-0.9-2.1-2.1-2.5-3.6s-0.1-2.9 0.7-4.3c0.9-1.3 2.1-2.2 3.6-2.6h0.5l3.2-0.5 3.2-0.6 6.4-1 6.4-1.1c1.1-0.2 2.1-0.3 3.2-0.6 1.1-0.2 2.1-0.5 3.2-0.7s2.1-0.3 3.2-0.6c1.1-0.2 2.1-0.5 3.2-0.7l6.4-1.4c2.1-0.5 4.3-0.9 6.4-1.4s4.3-1 6.4-1.5c4.3-1.1 8.5-2.1 12.6-3.2s8.3-2.2 12.5-3.5 8.3-2.6 12.4-4 8.1-2.8 12.1-4.4l6-2.4c2-0.8 4-1.7 6-2.6 3.7-1.7 7.5-3.6 11.4-5.8 3.7-2.1 7.3-4.3 10.6-6.8 0.8-0.6 1.7-1.3 2.5-1.9 0.8-0.7 1.6-1.4 2.3-2.1 1.6-1.4 3-3 4.2-4.6 0.6-0.8 1.2-1.6 1.7-2.4s1-1.7 1.4-2.5c0.4-0.9 0.7-1.8 1-2.7s0.5-1.8 0.6-2.8v-0.5c0.1-0.2 0.1-0.4 0.1-0.7v-1.5c0-0.9-0.1-1.8-0.3-2.7-0.4-1.8-1.1-3.4-2.2-4.7-0.5-0.7-1.1-1.3-1.8-1.9s-1.4-1.1-2.3-1.5c-0.8-0.5-1.7-0.8-2.7-1.1s-1.9-0.6-2.9-0.9l-3-0.6c-1-0.2-2-0.4-3.1-0.5-1.1-0.2-2.1-0.2-3.1-0.3-1 0-2.1-0.1-3.1-0.2-2.2-0.1-4.4-0.1-6.4-0.1-2.1 0-4.2 0.1-6.4 0.2-2.2 0.2-4.4 0.3-6.5 0.5s-4.3 0.3-6.5 0.5l-13.1 1.1c-4.3 0.4-8.8 0.6-13.3 0.7h-3.3s-2.3 0-3.4-0.1c-1.2-0.1-2.4-0.2-3.5-0.3-1.1-0.2-2.3-0.3-3.5-0.6-1.4-0.4-2.6-0.8-3.6-1.1-1.4-0.5-2.7-1.1-3.6-1.8-1.4-1-2.5-2.1-3.3-3.2-1-1.4-1.6-2.9-1.9-4.3-0.2-0.8-0.3-1.5-0.3-2.2-0.1-0.7-0.1-1.4-0.1-2.1 0.1-1.4 0.3-2.8 0.7-4.1 0.2-0.7 0.3-1.3 0.6-1.9 0.2-0.6 0.5-1.2 0.7-1.8l0.9-1.8c0.3-0.6 0.6-1.1 1-1.7 1.3-2.1 2.8-4 4.4-5.9 0.8-0.8 1.7-1.7 2.6-2.5s1.7-1.6 2.6-2.4c3.5-3 7.2-5.8 11.1-8.3 1.9-1.3 3.8-2.5 5.7-3.6s3.8-2.2 5.8-3.3c4-2.1 7.9-4.2 12-6.2 2-1 4-1.9 6-2.9 2.1-0.9 4.1-1.8 6.2-2.6 4.1-1.7 8.2-3.5 12.3-5.1 4.1-1.7 8.2-3.3 12.3-4.8 2.1-0.8 4.2-1.6 6.3-2.3s4.1-1.5 6.3-2.2c1.1-0.4 2.1-0.7 3.1-1.1 1-0.3 2.1-0.7 3.1-1.1l3.2-1 1.6-0.5 1.7-0.6c2.2-0.7 4.3-0.5 6.3 0.5s3.4 2.6 4 4.8c0.7 2.2 0.5 4.3-0.6 6.3s-2.7 3.4-4.9 4c-0.1 0.1-0.2 0.1-0.2 0.1-0.5-0.1-0.6 0-0.8 0z"/>
	<path d="m181.3 72.9l4.9-0.8c0.2-0.8 0.5-1.6 0.8-2.3 0.3-1.1 0.7-2.2 1.3-3.5l1.4-3.8 1.6-3.8 1-2.1c0.2-0.2 0.3-0.3 0.3-0.5l0.3-0.6c0.2-0.3 0.3-0.5 0.5-0.7 0.1-0.2 0.3-0.5 0.7-0.9 0.1-0.2 0.3-0.4 0.6-0.7 0.2-0.2 0.3-0.3 0.4-0.5s0.3-0.3 0.6-0.5l0.9-0.6c0.3-0.2 0.8-0.5 1.6-0.7 0.2-0.1 0.4-0.1 0.6-0.2 0.2 0 0.5-0.1 0.9-0.2h1c0.6 0 1.3 0.1 1.9 0.3 0.8 0.3 1.6 0.6 2.2 1 0.5 0.3 1.1 0.8 1.6 1.5 0.4 0.4 0.7 0.9 1 1.5 0.2 0.2 0.2 0.3 0.3 0.6 0 0.2 0.1 0.4 0.2 0.6 0.2 0.7 0.3 1.2 0.3 1.6 0.1 0.3 0.1 0.6 0.1 1 0 0.3 0 0.6-0.1 0.8 0 0.2-0.1 0.4-0.1 0.6s0 0.4-0.1 0.6c0 0.2-0.1 0.3-0.1 0.5l-0.3 1.4-0.7 2.4-0.8 1.9-0.6 1.7 93.5-16.6c2-0.3 3.8 0.1 5.5 1.3s2.7 2.8 3.1 4.7c0.4 2.1 0 3.9-1.2 5.6s-2.8 2.7-4.8 3.1h-0.5l-100 11.2c-0.2 0.3-0.3 0.6-0.4 0.8s-0.2 0.5-0.3 0.7l-0.9 1.6-1.8 3.4-2.1 3.4c-0.2 0.8-0.5 1.5-0.7 2.2-0.3 0.7-0.5 1.4-0.7 2.1l-2.5 7-2.4 7.1-2.4 7-2.3 7.1c-0.4 1.2-0.8 2.4-1.1 3.6-0.4 1.2-0.8 2.3-1.1 3.5l-1 3.5-1 3.6-1 3.5c-0.2 0.6-0.3 1.2-0.5 1.8s-0.3 1.2-0.5 1.8l-0.9 3.6c-0.3 1.2-0.5 2.4-0.7 3.6s-0.5 2.4-0.7 3.6l-0.6 3.6c-0.1 0.6-0.1 1.2-0.2 1.7 0 0.5-0.1 1.1-0.1 1.7-0.1 0.4-0.1 0.9-0.1 1.7 0 0.2 0 0.5 0.1 0.7 0 0.3 0.1 0.5 0.1 0.7v0.1l0.6-0.2 1.1-0.9 1.3-1.1 1.2-1.2c0.4-0.4 0.8-0.9 1.2-1.3l2.3-2.7 2.2-3 4.1-6 3.8-6.4 1.9-3.2 1.7-3.2c1.2-2.2 2.4-4.4 3.5-6.6l3.3-6.6 3.2-6.7 1.5-3.4 0.8-1.7 0.7-1.7c0.4-0.8 1-1.4 1.8-1.8 0.8-0.3 1.6-0.3 2.5 0.1 0.8 0.4 1.4 1 1.8 1.8 0.3 0.8 0.3 1.6-0.1 2.5-0.1 0-0.1 0.1-0.1 0.2l-3.5 6.6-3.4 6.7-7.2 13.2-1.8 3.3-1.8 3.3c-0.7 1.1-1.4 2.1-2 3.2s-1.3 2.2-1.9 3.2l-4.1 6.4c-0.8 1.1-1.5 2.1-2.2 3.1s-1.5 2.1-2.3 3.1c-0.5 0.5-0.9 1-1.3 1.5s-0.9 0.9-1.4 1.5c-0.9 1-2 1.9-3.2 2.8-0.7 0.5-1.4 0.8-2.3 1.1-0.4 0.2-0.9 0.3-1.5 0.5-0.2 0.1-0.4 0.1-0.8 0.1h-0.6c-0.3 0-0.5 0-0.7-0.1-0.3 0-0.8-0.2-1.4-0.5-0.5-0.3-0.8-0.6-1-0.8-0.5-0.5-0.8-1-1.1-1.6-0.2-0.3-0.2-0.6-0.3-0.8 0-0.2-0.1-0.4-0.3-0.6l-0.2-1.3c-0.1-0.4-0.1-0.8-0.2-1.1 0-0.4-0.1-0.8-0.1-1.1-0.1-0.4-0.1-0.7-0.1-1v-1-2c0-0.6 0-1.3 0.1-2 0.1-1.3 0.2-2.6 0.3-3.8 0.1-1.3 0.2-2.5 0.4-3.8 0.4-2.6 0.8-5.1 1.1-7.6 0.4-2.5 0.8-5 1.1-7.4l1.4-7.5c0.2-1.2 0.5-2.4 0.7-3.6s0.5-2.5 0.8-3.8l1.6-7.6c-0.8-0.9-1-2-0.8-3.2 0.4-1.4 0.8-2.6 1.1-3.6 0.2-0.6 0.3-1.2 0.5-1.8l0.6-1.8c0.4-1.2 0.8-2.4 1.3-3.5s0.9-2.3 1.4-3.5c0.8-2.1 1.7-4.2 2.5-6.3s1.6-4.2 2.5-6.3l-1.5 0.2c0.3-1.1 0.6-2.1 0.9-3.2s0.6-2.2 1-3.2l0.5-1.4 2.4-0.5 1.4-3.3 1.4-3.3 1.1-3.2c0.2-0.3 0.3-0.6 0.3-0.8 0.1-0.2 0.2-0.5 0.2-0.8l0.3-1.3c0.1-0.1 0.1-0.2 0.1-0.2v0.9c0 0.2 0.1 0.5 0.2 1.1l0.5 1 0.8 1.3 1.5 1.4c0.4 0.2 0.7 0.3 1 0.5s0.6 0.3 0.9 0.3c0.7 0.2 1.3 0.3 1.7 0.3h0.9c0.4-0.1 0.7-0.1 0.9-0.2 0.2 0 0.4-0.1 0.5-0.2 0.4-0.1 0.7-0.2 0.9-0.2 0.2-0.1 0.4-0.2 0.5-0.3 0.2-0.1 0.3-0.2 0.4-0.2 0.1-0.1 0.2-0.2 0.4-0.2l0.7-0.6c-0.1 0.3-0.3 0.8-0.6 1.4l-1.4 3.1c-0.2 0.2-0.3 0.6-0.5 1l2.9-0.5-0.9 2.1-1.7 3.5-0.8 1.7-0.9 1.7-0.1 0.2-1.9 0.2v0.1l-1.8 4.8-1.8 4.8-1.8 3.1c-1.1 2.1-2.5 4.2-4 6.4-0.7 1.1-1.4 2.1-2.1 3.1s-1.5 2.1-2.2 3.1l-2.2 3.1-2.4 3c-0.6 0.7-1.4 1.1-2.2 1.2-0.9 0.1-1.7-0.1-2.3-0.7l-0.2-0.2c0.8-3.6 1.6-7.3 2.5-10.9s1.8-7.2 2.8-10.9c0.4-1.4 0.8-2.7 1.1-4.1 0.4-1.4 0.8-2.7 1.1-4l-1.5 0.1c-1 0.2-1.9-0.1-2.6-0.7-0.8-0.6-1.2-1.4-1.4-2.5-0.2-1 0.1-1.9 0.7-2.6 0.5-1 1.2-1.4 2.1-1.6zm4.5 5.7l2.9-6.8v-0.1l14.3-2.5-0.9 2.3c-0.2 0.6-0.5 1.2-0.7 1.7s-0.4 1.1-0.6 1.7l-1.4 3.3-14 1.6 0.4-1.2z"/>
	<path d="m209 139.4c-0.2 0.9-0.3 1.8-0.3 2.7-0.1 0.9-0.1 1.8-0.1 2.6 0 0.5 0 0.9 0.1 1.3 0 0.4 0.1 0.8 0.2 1.2 0 0.3 0.1 0.6 0.2 0.9l0.2 0.8 0.2 0.5c0.1 0.1 0.1 0.2 0.1 0.2h0.6c0.5 0 1.1-0.1 1.8-0.3 0.3-0.2 0.6-0.3 1-0.5 0.3-0.2 0.7-0.4 1.1-0.6 0.7-0.5 1.4-1 2.1-1.6l2.1-1.8c0.7-0.6 1.4-1.3 2.1-1.9 0.7-0.7 1.3-1.4 1.9-2.2l3.8-4.4c0.6-0.8 1.2-1.6 1.8-2.4s1.2-1.6 1.8-2.4l3.4-4.9c1.1-1.7 2.1-3.3 3.2-5s2.1-3.4 3.1-5.1l1.5-2.6 1.5-2.6 1.4-2.6 1-2.1 0.3-0.6v-0.1c0.5-1.1 1.3-1.8 2.4-2.1s2.1-0.2 3.2 0.3 1.8 1.2 2.1 2.3 0.3 2.1-0.2 3.2l-0.2 0.3-1.6 2.7-1.7 2.6-1.6 2.5c-0.3 0.5-0.6 0.9-0.8 1.4s-0.5 0.9-0.8 1.3c-1.1 1.8-2.3 3.5-3.4 5.2s-2.3 3.4-3.5 5.1c-0.6 0.8-1.2 1.7-1.8 2.6s-1.2 1.7-1.8 2.6l-3.6 4.9c-0.6 0.8-1.3 1.7-1.9 2.5s-1.4 1.6-2.1 2.5c-0.7 0.8-1.4 1.6-2.1 2.4s-1.4 1.5-2.3 2.3c-1.6 1.7-3.3 3.1-5.1 4.3l-1.5 1-1.7 0.9-1.8 0.7c-0.4 0.2-0.7 0.3-1.1 0.3-0.3 0.1-0.7 0.1-1.1 0.1-0.3 0.1-0.7 0.1-1.3 0.1h-1c-0.1 0-0.1 0-0.2-0.1 0 0-0.1-0.1-0.2-0.1-1-0.2-1.9-0.4-2.7-0.8-0.8-0.5-1.6-1.1-2.3-1.8-0.3-0.4-0.6-0.7-0.8-1s-0.5-0.6-0.7-1-0.3-0.7-0.5-1-0.3-0.6-0.5-1l-0.6-1.9c-0.2-0.6-0.3-1.2-0.3-1.8-0.1-0.6-0.2-1.2-0.2-1.8-0.2-1.1-0.2-2.3-0.3-3.4 0-1.1 0-2.2 0.1-3.3 0-0.6 0-1.2 0.1-1.7 0-0.5 0.1-1 0.1-1.7l0.3-3.2c0.2-2.2 0.5-4.4 0.9-6.4 0.3-2.1 0.8-4.2 1.3-6.2 0.9-4.3 2.2-8.5 3.9-12.4 0.5-1.1 0.9-2.1 1.4-3.1s1-2 1.6-3.1l0.9-1.6 1-1.5c0.4-0.6 0.8-1.2 1.2-1.7s0.9-1 1.4-1.5c0.5-0.7 1.1-1.2 1.7-1.6 0.4-0.3 0.7-0.6 1.1-0.9 0.3-0.3 0.8-0.5 1.3-0.7 0.9-0.5 2.1-1 3.4-1.4 0.2 0 0.3 0 0.5-0.1 0.2 0 0.4-0.1 0.5-0.1 0.2-0.1 0.3-0.1 0.6-0.1h1.3c0.3 0 0.5 0 0.7 0.1 0.3 0 0.8 0.1 1.4 0.2 0.9 0.2 1.9 0.6 2.8 1.3s1.6 1.3 2.2 1.9c0.2 0.2 0.3 0.3 0.4 0.5s0.2 0.4 0.3 0.5l0.6 0.9 0.8 1.8 0.3 1.5 0.2 1.4c0.1 0.4 0.1 0.8 0.1 1.1v1.1c0 1.4-0.1 2.7-0.3 3.9-0.2 0.6-0.3 1.2-0.4 1.8s-0.2 1.1-0.4 1.7c-0.2 1-0.5 2.1-0.9 3.3-0.3 0.5-0.5 1-0.6 1.5l-0.7 1.6c-0.3 0.9-0.7 1.9-1.3 3l-0.7 1.5-0.3 0.8-0.3 0.8c-1.1 2.1-2.3 4.1-3.8 6-0.4 0.5-0.8 0.9-1.1 1.4-0.4 0.5-0.8 1-1.3 1.4l-1.4 1.3-1.7 1.3-1.9 1c-0.8 0.4-1.7 0.6-2.6 0.7h-1.6c-0.6-0.2-1.2-0.3-1.7-0.6-0.2 0-0.4-0.1-0.6-0.2l-0.7 2.4-0.6 2.6zm4.5-12.6c0.1 0.2 0.1 0.5 0.1 0.7 0.2-0.1 0.2-0.2 0.3-0.2 0-0.1 0.1-0.2 0.3-0.3 0.6-0.5 1.1-1 1.4-1.6 0.4-0.5 0.8-1.2 1.3-2.1 0.4-0.8 0.7-1.6 0.9-2.4s0.4-1.7 0.6-2.5c0-0.1 0-0.2 0.1-0.2 0-0.1 0.1-0.2 0.1-0.3v-0.3l0.1-0.3 0.2-1.5 0.3-2.9c0-0.2 0-0.2 0.1-0.3 0 0 0.1-0.1 0.1-0.3l-0.3 0.7c-0.5 0.8-0.9 1.7-1.3 2.5s-0.8 1.6-1.2 2.5l-1.3 2.6-1 2.6-0.8 1.9c0 0.4 0 0.7 0.1 1-0.3 0.2-0.2 0.4-0.1 0.7z"/>
	<path d="m257.2 109.3l-8.4 32.4 0.2-0.2c1.1-1.1 2.3-2.1 3.4-3.1s2.3-2 3.5-3l7-5.7c2.4-1.9 4.8-3.8 7.1-5.6s4.6-3.7 6.8-5.6c1.1-1 2.2-2 3.3-2.9s2.1-2 3.2-3l2.9-3.1c0.4-0.5 0.8-1 1.1-1.5 0.4-0.5 0.8-1 1.1-1.7 0.5-0.8 1.3-1.4 2.2-1.6s1.8-0.1 2.6 0.5c0.8 0.5 1.4 1.2 1.7 2.1 0.3 1 0.1 1.8-0.4 2.7-0.5 0.8-0.9 1.5-1.4 2.2s-1 1.3-1.6 1.9c-1.1 1.3-2.1 2.5-3.2 3.5-1.1 1.1-2.2 2.2-3.3 3.2s-2.3 2.1-3.4 3.1c-2.3 2-4.6 3.9-7 5.8s-4.7 3.8-7 5.7l-7 5.7c-1.1 1-2.1 2-3.2 2.9-1.1 1-2.2 1.9-3.2 2.9l-3.1 3.1c-1 1-2 2-2.9 3.1l-2.5 3.3c-0.4 0.5-0.7 1.1-1 1.6s-0.6 1.1-0.8 1.6c-0.4 1.1-1 1.8-2 2.3-0.9 0.5-1.9 0.5-2.9 0.1-0.9-0.3-1.6-0.9-2.1-1.7s-0.7-1.7-0.5-2.6v-0.6l6.4-50.7c0.2-2.1 1.2-3.7 2.8-5s3.4-1.8 5.4-1.5c2.1 0.2 3.7 1.2 5 2.8s1.8 3.5 1.5 5.5c0 0.5-0.1 0.8-0.3 1.1z"/>
	<path d="m287.7 139.4c-0.2 0.9-0.3 1.8-0.3 2.7-0.1 0.9-0.1 1.8-0.1 2.6 0 0.5 0 0.9 0.1 1.3 0 0.4 0.1 0.8 0.2 1.2 0 0.3 0.1 0.6 0.2 0.9l0.2 0.8 0.2 0.5c0.1 0.1 0.1 0.2 0.1 0.2h0.6c0.5 0 1.1-0.1 1.8-0.3 0.3-0.2 0.6-0.3 1-0.5 0.3-0.2 0.7-0.4 1.1-0.6 0.7-0.5 1.4-1 2.1-1.6l2.1-1.8c0.7-0.6 1.4-1.3 2.1-1.9 0.7-0.7 1.3-1.4 1.9-2.2l3.8-4.4c0.6-0.8 1.2-1.6 1.8-2.4s1.2-1.6 1.8-2.4l3.4-4.9c1.1-1.7 2.1-3.3 3.2-5s2.1-3.4 3.1-5.1l1.5-2.6 1.5-2.6 1.4-2.6 1-2.1 0.3-0.6v-0.1c0.5-1.1 1.3-1.8 2.4-2.1s2.1-0.2 3.2 0.3 1.8 1.2 2.1 2.3 0.3 2.1-0.2 3.2l-0.2 0.3-1.6 2.7-1.7 2.6-1.6 2.5c-0.3 0.5-0.6 0.9-0.8 1.4s-0.5 0.9-0.8 1.3c-1.1 1.8-2.3 3.5-3.4 5.2s-2.3 3.4-3.5 5.1c-0.6 0.8-1.2 1.7-1.8 2.6s-1.2 1.7-1.8 2.6l-3.6 4.9c-0.6 0.8-1.3 1.7-1.9 2.5s-1.4 1.6-2.1 2.5c-0.7 0.8-1.4 1.6-2.1 2.4s-1.4 1.5-2.3 2.3c-1.6 1.7-3.3 3.1-5.1 4.3l-1.5 1-1.7 0.9-1.8 0.7c-0.4 0.2-0.7 0.3-1.1 0.3-0.3 0.1-0.7 0.1-1.1 0.1-0.3 0.1-0.7 0.1-1.3 0.1h-1c-0.1 0-0.1 0-0.2-0.1 0 0-0.1-0.1-0.2-0.1-1-0.2-1.9-0.4-2.7-0.8-0.8-0.5-1.6-1.1-2.3-1.8-0.3-0.4-0.6-0.7-0.8-1s-0.5-0.6-0.7-1-0.3-0.7-0.5-1-0.3-0.6-0.5-1l-0.6-1.9c-0.2-0.6-0.3-1.2-0.3-1.8-0.1-0.6-0.2-1.2-0.2-1.8-0.2-1.1-0.2-2.3-0.3-3.4 0-1.1 0-2.2 0.1-3.3 0-0.6 0-1.2 0.1-1.7 0-0.5 0.1-1 0.1-1.7l0.3-3.2c0.2-2.2 0.5-4.4 0.9-6.4 0.3-2.1 0.8-4.2 1.3-6.2 0.9-4.3 2.2-8.5 3.9-12.4 0.5-1.1 0.9-2.1 1.4-3.1s1-2 1.6-3.1l0.9-1.6 1-1.5c0.4-0.6 0.8-1.2 1.2-1.7s0.9-1 1.4-1.5c0.5-0.7 1.1-1.2 1.7-1.6 0.4-0.3 0.7-0.6 1.1-0.9 0.3-0.3 0.8-0.5 1.3-0.7 0.9-0.5 2.1-1 3.4-1.4 0.2 0 0.3 0 0.5-0.1 0.2 0 0.4-0.1 0.5-0.1 0.2-0.1 0.3-0.1 0.6-0.1h1.3c0.3 0 0.5 0 0.7 0.1 0.3 0 0.8 0.1 1.4 0.2 0.9 0.2 1.9 0.6 2.8 1.3s1.6 1.3 2.2 1.9c0.2 0.2 0.3 0.3 0.4 0.5s0.2 0.4 0.3 0.5l0.6 0.9 0.8 1.8 0.3 1.5 0.2 1.4c0.1 0.4 0.1 0.8 0.1 1.1v1.1c0 1.4-0.1 2.7-0.3 3.9-0.2 0.6-0.3 1.2-0.4 1.8s-0.2 1.1-0.4 1.7c-0.2 1-0.5 2.1-0.9 3.3-0.3 0.5-0.5 1-0.6 1.5l-0.7 1.6c-0.3 0.9-0.7 1.9-1.3 3l-0.7 1.5-0.3 0.8-0.3 0.8c-1.1 2.1-2.3 4.1-3.8 6-0.4 0.5-0.8 0.9-1.1 1.4-0.4 0.5-0.8 1-1.3 1.4l-1.4 1.3-1.7 1.3-1.9 1c-0.8 0.4-1.7 0.6-2.6 0.7h-1.6c-0.6-0.2-1.2-0.3-1.7-0.6-0.2 0-0.4-0.1-0.6-0.2l-0.7 2.4-0.6 2.6zm4.4-12.6c0.1 0.2 0.1 0.5 0.1 0.7 0.2-0.1 0.2-0.2 0.3-0.2 0-0.1 0.1-0.2 0.3-0.3 0.6-0.5 1.1-1 1.4-1.6 0.4-0.5 0.8-1.2 1.3-2.1 0.4-0.8 0.7-1.6 0.9-2.4s0.4-1.7 0.6-2.5c0-0.1 0-0.2 0.1-0.2 0-0.1 0.1-0.2 0.1-0.3v-0.3l0.1-0.3 0.2-1.5 0.3-2.9c0-0.2 0-0.2 0.1-0.3 0 0 0.1-0.1 0.1-0.3l-0.3 0.7c-0.5 0.8-0.9 1.7-1.3 2.5s-0.8 1.6-1.2 2.5l-1.3 2.6-1 2.6-0.8 1.9c0 0.4 0 0.7 0.1 1-0.2 0.2-0.1 0.4-0.1 0.7z"/>
	<path d="m337.6 102l-5.2 10.5-2.4 5 0.9-1.3c0.6-0.8 1.2-1.5 1.9-2.2 0.6-0.7 1.3-1.5 2-2.2 0.7-0.8 1.3-1.5 2-2.2 0.6-0.7 1.4-1.5 2.2-2.2l1.1-1.1 1.3-1.1c0.2-0.1 0.5-0.3 0.8-0.6l1-0.7 0.6-0.3 0.9-0.3 0.1-0.1h0.1l0.2-0.1h0.1c0.1-0.1 0.2-0.1 0.2-0.1l0.2-0.1h0.5c0.5-0.2 0.9-0.2 1.5-0.1h0.5c0.2 0.1 0.3 0.1 0.3 0.1h0.3c0.1 0 0.2 0 0.2 0.1 0.1 0 0.2 0.1 0.2 0.1 0.3 0.1 0.8 0.3 1.4 0.6l1 0.7c0.3 0.2 0.6 0.5 0.7 0.7 0.2 0.2 0.4 0.5 0.5 0.7 0.3 0.3 0.5 0.7 0.7 1.1 0.1 0.2 0.2 0.3 0.2 0.4 0.1 0.1 0.1 0.2 0.1 0.4l0.5 1.5 0.2 1 0.2 1.9v1.7 1.7s0 1-0.1 1.5l-0.2 3-0.8 5.8-0.7 5.6v0.1l0.3-0.6c0.5-0.8 1.1-1.5 1.6-2.2s1-1.5 1.5-2.3c1.1-1.6 2.1-3.2 3-4.8s1.9-3.2 2.9-4.9l2.7-5 1.3-2.6 0.7-1.3 0.6-1.3c0.5-1.1 1.2-1.8 2.3-2.2s2.1-0.3 3.2 0.2 1.8 1.2 2.2 2.2 0.3 2.1-0.2 3.1c0 0.2 0 0.2-0.1 0.3 0 0-0.1 0.1-0.1 0.2h-0.1l-5.9 10c-1.1 1.7-2.1 3.3-3.1 5-1 1.6-2 3.3-3.1 5l-3.2 5c-0.3 0.4-0.6 0.8-0.9 1.2s-0.6 0.8-1 1.2c-0.2 0.2-0.3 0.5-0.5 0.7s-0.3 0.4-0.5 0.6l-1.1 1.4-1.5 1.3c-0.2 0.3-0.6 0.6-1 0.8l-0.9 0.5-1.4 0.3c-0.5 0-0.8 0-1-0.1-0.2 0-0.6-0.1-1-0.2l-0.9-0.3c-0.3-0.3-0.5-0.5-0.7-0.6-0.3-0.2-0.6-0.6-0.9-1l-0.5-0.8-0.5-1.4-0.3-1-0.3-1.7c0-0.3 0-0.6-0.1-0.9 0-0.3-0.1-0.5-0.1-0.9-0.1-0.5-0.1-1-0.2-1.5 0-0.5-0.1-1-0.1-1.5l0.1-6.4-0.3-5.7v-0.3l-0.6 0.6-4 4.1-3.9 4c-2.7 2.7-5.3 5.5-7.9 8.4-2.6 2.8-5.1 5.7-7.5 8.6l-3.5 4.4-1.4 1.8-0.8 1.4-0.5 0.8c0 0.1-0.1 0.2-0.2 0.3l-0.3 0.6-0.2 0.3-0.5 0.5-0.5 0.3c0 0.1-0.1 0.2-0.3 0.2l-0.1 0.1-0.1 0.1c-0.3 0.2-0.6 0.3-1 0.3-0.6 0.2-1.1 0.2-1.6 0.2s-0.9-0.2-1.4-0.5-1-0.7-1.4-1.3c-0.6-1.1-0.9-1.8-0.7-2.2 0.1-0.4 0.1-0.7 0.1-0.9l0.2-0.7c0-0.2 0-0.2 0.1-0.2v-0.2l0.2-0.2v-0.2l0.1-0.1 0.3-0.5c0.1-0.2 0.2-0.3 0.2-0.4 0.1-0.1 0.2-0.2 0.2-0.4l0.5-0.6 0.2-0.3v-0.1l0.6-1.3 2.1-5.2c0.7-1.7 1.4-3.5 2.1-5.3s1.3-3.6 1.9-5.4 1.2-3.6 1.8-5.5 1.2-3.6 1.8-5.5c0.6-1.8 1.2-3.6 1.7-5.5 0.5-1.8 1.1-3.6 1.6-5.5s1-3.8 1.5-5.6c0.5-1.9 0.9-3.7 1.4-5.5 0.5-2.1 1.6-3.6 3.3-4.7s3.6-1.4 5.6-1c2 0.5 3.5 1.6 4.7 3.3 1.1 1.7 1.5 3.6 1 5.6l-0.9 1.9z"/>
	<path d="m439.9 55.6l3.2-1.6c0.6-0.2 1.2-0.5 1.7-0.7s1.1-0.5 1.6-0.8l6.6-2.9c2.2-1 4.4-1.9 6.7-2.8 2.2-0.9 4.5-1.8 6.7-2.7 2.2-0.8 4.4-1.7 6.7-2.5s4.5-1.7 6.7-2.5c4.6-1.7 9.1-3.3 13.7-4.8l1-0.3 4.4-16.1c0.6-2.2 1.9-3.9 3.9-5s4.1-1.4 6.3-0.8 3.9 1.9 5 3.9 1.4 4.1 0.8 6.2c0 0.2 0 0.3-0.1 0.3 0 0.1-0.1 0.2-0.1 0.3l-2.1 5.6 8.7-2.3 3.5-0.8c0.6-0.2 1.2-0.3 1.8-0.4s1.2-0.2 1.8-0.4l3.5-0.8 3.8-0.7c1.2-0.2 2.4-0.4 3.6-0.6s2.5-0.4 3.8-0.5c2.5-0.4 5.1-0.6 7.6-0.7 2.6-0.2 5.3-0.2 8.1 0 0.8 0 1.5 0 2.2 0.1s1.5 0.2 2.2 0.3c0.8 0.2 1.7 0.3 2.5 0.5s1.6 0.5 2.5 0.9c0.5 0.2 0.9 0.3 1.4 0.5s0.9 0.4 1.4 0.7c0.9 0.5 1.9 1.2 2.8 2.1 1.1 0.8 1.9 1.9 2.6 3.1 0.5 0.5 0.8 1.2 1 1.9 0.3 0.5 0.5 1.2 0.7 1.9 0.4 1.5 0.6 2.8 0.6 3.9 0 0.1 0 0.1-0.1 0.2 0 0-0.1 0.1-0.1 0.2v1.1c0 0.2 0 0.3-0.1 0.6 0 0.2-0.1 0.4-0.1 0.6-0.2 1.7-0.6 3.3-1 4.8-0.9 2.9-2.1 5.5-3.4 8-1.4 2.4-3 4.7-4.6 6.7-1.7 2.1-3.4 4.1-5.1 5.9s-3.6 3.6-5.5 5.3c-0.9 0.8-1.8 1.7-2.8 2.5s-1.9 1.6-2.8 2.5c-1 0.8-2 1.6-2.9 2.3-1 0.7-1.9 1.5-2.9 2.2-1.3 1-2.5 1.9-3.7 2.8s-2.4 1.8-3.6 2.6c2.1 0 4.2 0.1 6.4 0.3 3.2 0.5 6.2 1.3 9 2.5 0.8 0.3 1.5 0.6 2.2 1s1.4 0.8 2.1 1.1c1.3 0.9 2.6 1.9 4 3 2.5 2.2 4.6 4.8 6.3 7.9 0.8 1.5 1.5 3.1 2 4.7s0.9 3.2 1.1 4.8c0.5 3.3 0.5 6.5 0 9.6-0.2 1.5-0.5 3-0.9 4.4s-0.8 2.9-1.4 4.2c-0.6 1.4-1.2 2.7-1.8 4s-1.3 2.5-2.1 3.8c-0.7 1.2-1.4 2.4-2.2 3.5s-1.6 2.2-2.5 3.3c-1.8 2.3-3.6 4.3-5.5 6-1.9 2-3.8 3.8-5.8 5.5s-4 3.4-6.2 5c-2.1 1.5-4.3 3-6.4 4.4s-4.3 2.8-6.5 4.1-4.4 2.5-6.7 3.8c-2.3 1.2-4.6 2.4-6.8 3.5s-4.6 2.2-6.9 3.2-4.7 2.1-7 3.1c-2.4 1-4.7 1.9-7 2.8s-4.7 1.8-7.1 2.6c-4.8 1.7-9.6 3.4-14.4 4.8-4.8 1.5-9.6 2.9-14.5 4.2s-9.7 2.5-14.6 3.6-9.8 2.2-14.7 3.3c-1.1 0.2-2.1 0.1-3-0.5s-1.5-1.4-1.7-2.5-0.1-2.1 0.5-3 1.4-1.4 2.5-1.6c4.9-1.1 9.7-2.2 14.4-3.4s9.5-2.5 14.3-3.9 9.5-2.8 14.1-4.4 9.2-3.2 13.8-5.1c2.3-0.9 4.6-1.8 6.8-2.8 2.3-1 4.5-2 6.7-3 4.4-2.1 8.7-4.2 13-6.5 4.4-2.4 8.5-5 12.4-7.6 4-2.7 7.8-5.6 11.4-8.7 3.5-3 6.8-6.3 9.9-9.9s5.6-7.2 7.5-10.9c0.5-1 1-2 1.4-2.9s0.8-1.9 1.1-2.9c0.6-2.1 1-4.1 1.3-5.8 0.2-0.9 0.2-1.8 0.2-2.7s-0.1-1.8-0.3-2.6c-0.3-1.7-0.9-3.2-1.7-4.6-0.4-0.8-0.8-1.4-1.3-2s-1-1.2-1.7-1.8c-0.4-0.3-0.7-0.6-1-0.8s-0.6-0.5-1-0.7-0.8-0.4-1.1-0.6c-0.4-0.2-0.8-0.4-1.1-0.5-0.8-0.4-1.7-0.7-2.6-1s-1.9-0.5-2.8-0.6c-0.9-0.2-1.9-0.3-2.9-0.4s-2-0.2-3.1-0.2c-2.1 0-4.3 0.1-6.4 0.4-2.2 0.3-4.4 0.6-6.6 1.1l-6.6 1.8-3.4 1-1.7 0.6-1.7 0.5-0.6 0.3c-1 0.5-2 0.5-3 0.2s-1.7-1-2.2-2-0.5-2-0.2-3 0.9-1.7 1.9-2.2l1.5-1.4 0.8-0.6 0.8-0.7c0.6-0.4 1.2-0.8 1.7-1.1 0.5-0.4 1-0.8 1.7-1.1 2.3-1.4 4.6-2.7 7.1-3.9l4-3.1 2.7-2.2 2.6-2.4c3.6-3 7.1-6.2 10.3-9.6l4.8-5.1 4.4-5.2c0.7-0.9 1.4-1.8 2.1-2.7s1.3-1.8 1.9-2.7l1.8-2.7 1.8-2.7c0.5-0.9 1-1.8 1.5-2.8 0.5-0.9 0.9-1.9 1.3-2.8 0.8-1.7 1.3-3.4 1.7-5.2l0.2-2.1c-0.2-0.1-0.5-0.2-0.9-0.2-0.3-0.1-0.7-0.2-1.1-0.2l-2.6-0.3c-0.5 0-1 0-1.5-0.1-0.5 0-1-0.1-1.5-0.1s-1 0-1.5 0.1c-0.5 0-1 0.1-1.5 0.1-1.1 0.1-2.1 0.2-3.2 0.2-1.1 0.1-2.2 0.2-3.4 0.3-1.1 0.2-2.2 0.3-3.3 0.5s-2.3 0.3-3.4 0.5c-0.6 0.1-1.2 0.2-1.7 0.2-0.5 0.1-1.1 0.2-1.7 0.3l-3.4 0.6-3.3 0.7-3.4 0.7c-4.6 0.9-9.1 1.9-13.7 3.1l-4.7 1-41.8 118.5c-0.2 0.6-0.7 1.1-1.3 1.4s-1.3 0.4-1.9 0.1c-1.4-0.5-2-1.6-1.6-3.1l30.3-112.3c-1.1 0.3-2.1 0.6-3.2 0.9s-2.2 0.5-3.2 0.7l-13.7 3.8-13.8 3.6-6.8 1.9-7 1.8c-1.1 0.3-2.1 0.2-3-0.3s-1.5-1.3-1.8-2.4c-0.2-1-0.1-1.9 0.3-2.7s1-1.4 1.9-1.8zm122.7-18c-0.2-0.2-0.2-0.1 0 0.2v0.1-0.3z"/>
	<path d="m602.5 102.8h-0.2l-0.1 0.1h-0.5l-0.8 0.3c-0.5 0.2-1.2 0.5-1.9 1l-1.9 1.5-0.9 0.9c-0.3 0.3-0.6 0.6-0.9 1-0.6 0.6-1.2 1.3-1.8 2s-1.2 1.5-1.8 2.2l-3.2 4.7c-1.8 3.2-3.6 6.7-5.2 10.4l-1 2.6c-0.2 0.5-0.3 0.9-0.5 1.4s-0.3 0.9-0.5 1.4-0.3 0.9-0.5 1.4-0.3 0.9-0.5 1.4l-0.7 2.7c-0.2 0.5-0.2 0.9-0.3 1.4 0 0.5-0.1 0.9-0.2 1.4s-0.1 0.9-0.2 1.4c0 0.5-0.1 0.9-0.1 1.3v0.8l0.6-0.6 0.8-0.9c0.2-0.2 0.3-0.3 0.4-0.6 0.1-0.2 0.2-0.4 0.4-0.6s0.3-0.3 0.4-0.5 0.2-0.4 0.4-0.6l0.7-1.1 0.7-1.3c0.5-0.8 0.9-1.7 1.3-2.6l1.2-2.7c0.4-0.9 0.7-1.8 1.1-2.7s0.7-1.9 1.1-2.9c0.3-0.9 0.6-1.8 0.9-2.8 0.3-0.9 0.6-1.9 0.8-2.9l0.7-2.8c0-0.2 0-0.3 0.1-0.3v-1l0.1 0.1c0-0.1 0-0.1 0.1-0.1 0 0 0.1 0 0.1-0.1 0-0.3 0-0.5 0.1-0.7v-0.7l0.9-1.6c0.8-1.5 2.1-2.5 3.7-3s3.2-0.3 4.7 0.5c1.3 0.7 2.2 1.7 2.8 3.1s0.7 2.7 0.3 4.1v0.1l-0.1 0.1v0.3l-0.1 0.7-0.3 1.3 4.6-7.4 2.5-4c0.5-0.6 0.9-1.3 1.3-1.9 0.4-0.7 0.9-1.4 1.3-2.1 0.6-0.9 1.4-1.5 2.5-1.7s2.1 0 3 0.6 1.5 1.4 1.7 2.5 0 2.1-0.6 3l-2.4 3.9-2.4 4-4.8 8-4.6 8.1-2.2 4-1.9 4c-0.5 1.1-1.2 1.8-2.3 2.3s-2.2 0.4-3.2-0.1c-0.7-0.2-1.2-0.6-1.6-1.3h-0.1l-0.6-0.9-0.3-0.8-0.5-1.1c-0.2-0.3-0.2-0.6-0.3-0.9 0-0.3-0.1-0.6-0.2-0.8l-2.1 3.2c-0.2 0.2-0.3 0.4-0.5 0.6s-0.3 0.4-0.5 0.6l-1 1.4c-0.2 0.5-0.5 0.9-0.9 1.3-0.5 0.6-0.8 1.1-1.1 1.4-0.7 0.9-1.6 1.8-2.6 2.6l-1.8 1.3-1.4 0.5c-0.2 0-0.3 0-0.3 0.1h-0.4c-0.2 0.1-0.5 0.1-0.8 0.1-0.6 0-1.3-0.1-1.9-0.3s-1.2-0.5-1.7-1.1l-0.6-0.6c-0.2-0.3-0.4-0.5-0.5-0.6l-0.6-1.3c-0.2-0.4-0.3-0.8-0.3-1.1-0.1-0.4-0.2-0.8-0.2-1.1-0.1-0.3-0.1-0.6-0.1-0.9v-0.9c-0.1-0.6-0.1-1.2-0.1-1.8s0.1-1.2 0.2-1.8c0-0.5 0-1.1 0.1-1.6s0.2-1.1 0.2-1.6l0.6-3.2c0.2-0.5 0.3-1 0.4-1.5s0.2-1 0.4-1.5 0.3-1 0.4-1.5 0.2-1 0.4-1.5l0.8-3.1c1.3-4.1 2.8-8.1 4.4-11.9 0.4-1 0.8-2 1.3-2.9 0.5-1 0.9-1.9 1.4-2.9s1.1-2 1.6-2.9 1.1-1.9 1.7-2.9c0.3-0.5 0.6-1 0.9-1.5s0.6-0.9 1-1.4l2.2-3 2.9-2.7 1.6-1.4 0.9-0.7 0.3-0.1 0.2-0.2 0.5-0.2c1.7-1.2 3.6-1.6 5.6-1.3 2 0.4 3.6 1.4 4.7 3.2 1.2 1.7 1.6 3.6 1.3 5.6-0.4 2-1.4 3.6-3.2 4.8-0.9-0.2-1.6 0.2-2.5 0.4zm-24.5 41.6v0.1l0.1-0.1h-0.1z"/>
	<path d="m611.8 106.4c0.6-0.7 1.1-1.4 1.6-2.1s1-1.5 1.5-2.2c0.5-0.8 1-1.5 1.5-2.3s0.9-1.6 1.4-2.4l2.7-4.9 5.5-9.8 2.6-4.9c0.9-1.7 1.8-3.3 2.7-5 0.9-1.6 1.7-3.3 2.6-5.1 0.8-1.7 1.7-3.3 2.5-5s1.7-3.4 2.5-5.1l2.4-5.1 0.6-1.4v-0.2l1-3.3v-0.4l0.1-0.5v-1.8c0.1-0.2 0.1-0.5 0.1-0.9 0-0.2 0-0.3 0.1-0.5 0-0.2 0.1-0.3 0.1-0.5 0-0.1 0-0.1 0.1-0.2 0 0 0.1-0.1 0.1-0.3 0-0.1 0-0.2 0.1-0.2 0-0.1 0.1-0.2 0.1-0.2 0.2-0.5 0.3-0.8 0.5-1 0-0.2 0.1-0.3 0.2-0.5l0.3-0.6c0.2-0.2 0.3-0.3 0.5-0.6 0.2-0.2 0.4-0.5 0.7-0.7l1-0.8c0.1 0 0.2-0.1 0.3-0.2 0.2 0 0.2 0 0.2-0.1 0.2 0 0.2 0 0.2-0.1 0.2 0 0.3 0 0.3-0.1 0.1 0 0.2 0 0.2-0.1 0.2 0 0.4-0.1 0.7-0.2l1.7-0.3h0.5c0.2 0.1 0.4 0.1 0.6 0 0.3-0.1 0.9 0 1.9 0.3 1.1 0.5 2.1 1.1 3 1.8 0.5 0.5 0.9 1.1 1.3 1.7 0.2 0.3 0.3 0.6 0.3 0.7 0.1 0.2 0.2 0.4 0.2 0.5 0.2 0.5 0.2 0.7 0.2 0.8 0.1 0.2 0.1 0.3 0.1 0.6 0 0.1 0 0.2 0.1 0.2 0 0.1 0.1 0.2 0.1 0.2v1c0 0.5 0 0.9-0.1 1.1 0 0.3 0 0.5-0.1 0.7 0 0.2 0 0.3-0.1 0.5 0 0.2-0.1 0.4-0.1 0.5-0.2 0.3-0.2 0.6-0.3 0.9 0 0.3-0.1 0.5-0.2 0.7-0.2 0.6-0.3 1.1-0.5 1.5-0.2 0.5-0.3 1-0.4 1.5s-0.2 0.9-0.4 1.4l-0.9 2.8-0.9 2.7c-0.3 0.9-0.6 1.8-1 2.7-1.3 3.6-2.6 7.2-3.8 10.7-1.3 3.5-2.6 7-3.9 10.6-1.4 3.6-2.7 7.1-4.1 10.5-1.4 3.5-2.8 6.9-4.2 10.4-1.5 3.6-3 7.1-4.4 10.5s-2.9 6.9-4.4 10.4l-0.6 1.1 3-3.5c1.4-1.7 2.9-3.4 4.2-5.1 1.4-1.7 2.7-3.4 4.1-5.2 0.7-0.9 1.4-1.8 2.1-2.7s1.5-1.7 2.2-2.6c0.4-0.5 0.8-0.9 1.1-1.3 0.4-0.4 0.8-0.9 1.1-1.3l2.4-2.5 2.6-2.4c0.5-0.4 1-0.8 1.5-1.1 0.5-0.4 1-0.8 1.6-1.1 0.5-0.4 1.1-0.7 1.7-1.1 0.6-0.3 1.2-0.7 2-1 0.8-0.4 1.6-0.7 2.4-0.9 0.6-0.2 1.1-0.2 1.5-0.2 0.2-0.1 0.4-0.1 0.8-0.1h1.8c0.2 0 0.6 0.1 1 0.2 0.2 0.1 0.5 0.2 0.7 0.2 0.2 0.1 0.5 0.2 0.8 0.3 0.5 0.2 1.1 0.6 1.7 1.3 0.7 0.7 1.2 1.4 1.5 2.1l0.2 0.6c0 0.1 0 0.2 0.1 0.2 0 0.1 0.1 0.2 0.1 0.3 0.1 0.1 0.1 0.2 0.1 0.5 0.1 0.1 0.1 0.2 0.1 0.5 0.1 0.4 0.1 0.7 0.1 0.9s-0.1 0.5-0.1 0.7-0.1 0.6-0.2 1c0 0.2-0.1 0.5-0.2 0.8 0 0.1-0.1 0.3-0.2 0.6l-0.3 0.9-0.8 1.3c-0.5 0.7-0.9 1.3-1.4 1.7l-1.4 1.5-2.6 2.4c-0.5 0.4-0.9 0.7-1.4 1.1s-0.9 0.7-1.4 1.1c-1.7 1.3-3.5 2.6-5.6 3.9l-5.5 3.8c-0.9 0.6-1.8 1.2-2.7 1.9-0.9 0.6-1.8 1.3-2.6 2l-2.7 1.9-1.4 1-0.1 1.6v1.6c0 0.5 0 1.1-0.1 1.6v6.5c0 2.2 0.1 4.4 0.2 6.5s0.2 4.3 0.4 6.4l0.3 3.2 0.6 3 0.2 0.9 0.3-0.5c0.4-0.4 0.7-0.8 1-1.2s0.6-0.9 0.9-1.3c1.2-1.5 2.4-3.3 3.6-5.2 1.2-1.7 2.4-3.6 3.5-5.4s2.3-3.7 3.4-5.5c1.1-1.9 2.3-3.8 3.4-5.6s2.2-3.7 3.2-5.7c1.1-1.9 2.2-3.8 3.3-5.6 1.1-1.9 2.1-3.7 3.2-5.6l3.2-5.7 3.1-5.8c0.4-0.8 1-1.4 1.8-1.6s1.7-0.2 2.5 0.2c0.8 0.5 1.4 1.1 1.7 1.9s0.2 1.7-0.3 2.5v0.1l-6.7 11.3-6.7 11.4c-1.1 1.9-2.3 3.8-3.4 5.6-1.1 1.9-2.3 3.7-3.5 5.5l-3.4 5.6c-0.6 1-1.2 1.9-1.8 2.8l-1.8 2.7c-1.1 1.8-2.4 3.6-3.8 5.5l-2.1 2.7-1.3 1.4-0.7 0.7-0.4 0.4-0.4 0.4-0.6 0.3c-0.2 0.2-0.5 0.3-0.9 0.5-0.3 0.2-0.5 0.2-0.7 0.2h-0.5c-0.1 0-0.1 0-0.1 0.1 0 0 0 0.1-0.1 0.1h-0.1l-0.1-0.1h-0.1c-0.5 0-1-0.2-1.5-0.5-0.5-0.2-0.8-0.5-1-0.7l-0.6-0.7c-0.2-0.2-0.3-0.4-0.3-0.6-0.1-0.2-0.2-0.4-0.3-0.5-0.3-0.7-0.5-1.3-0.7-1.9l-0.5-1.8c-0.2-0.6-0.3-1.2-0.3-1.7-0.1-0.5-0.2-1.1-0.3-1.7l-0.3-3.4-0.6-6.6c-0.1-1.1-0.1-2.3-0.2-3.4 0-1.1-0.1-2.2-0.1-3.3-0.1-1.1-0.1-2.3-0.2-3.4 0-1.1-0.1-2.2-0.1-3.2l-0.1-3.3-0.1-1.7v-0.2c-1.3 1.3-2.5 2.6-3.6 3.9s-2.3 2.6-3.4 3.9c-0.7 0.8-1.4 1.7-2.1 2.6s-1.3 1.7-1.9 2.6c-0.4 0.5-0.7 0.9-1 1.3s-0.6 0.9-0.9 1.3l-0.9 1.4-0.8 1.4c-0.5 0.8-1.2 1.3-2.1 1.5s-1.7 0-2.5-0.5c-1.3-0.8-1.7-2-1.4-3.5l0.1-0.7 0.8-2.7 0.7-2.7 1.6-5.5 1.5-5.4c0.5-1.8 1-3.6 1.7-5.4 1.1-3.6 2.1-7.2 3.2-10.8 1.1-3.5 2.2-7.1 3.4-10.8l3.1-9.5-0.1 0.1c-0.4 0.8-0.8 1.7-1.3 2.6s-0.9 1.7-1.4 2.6l-2.7 5-3.1 4.9c-0.2 0.4-0.5 0.8-0.7 1.2-0.3 0.4-0.6 0.8-0.9 1.2-0.2 0.2-0.3 0.5-0.5 0.7s-0.3 0.4-0.5 0.6c-0.2 0.3-0.3 0.5-0.5 0.6l-0.5 0.7c-0.5 0.7-1.2 1.1-2.1 1.2s-1.7-0.1-2.5-0.6c-0.7-0.6-1.1-1.3-1.3-2.2 0.2-1.2 0.5-2 1.1-2.8z"/>
	<path d="m673.7 139.4c-0.2 0.9-0.3 1.8-0.3 2.7-0.1 0.9-0.1 1.8-0.1 2.6 0 0.5 0 0.9 0.1 1.3 0 0.4 0.1 0.8 0.2 1.2 0 0.3 0.1 0.6 0.2 0.9l0.2 0.8 0.2 0.5c0.1 0.1 0.1 0.2 0.1 0.2h0.6c0.5 0 1.1-0.1 1.8-0.3 0.3-0.2 0.6-0.3 1-0.5s0.7-0.4 1.1-0.6c0.7-0.5 1.4-1 2.1-1.6l2.1-1.8c0.7-0.6 1.4-1.3 2.1-1.9 0.7-0.7 1.3-1.4 1.9-2.2l3.8-4.4c0.6-0.8 1.2-1.6 1.8-2.4s1.2-1.6 1.8-2.4l3.4-4.9c1.1-1.7 2.1-3.3 3.2-5s2.1-3.4 3.1-5.1l1.5-2.6 1.5-2.6 1.4-2.6 1-2.1 0.3-0.6v-0.1c0.5-1.1 1.3-1.8 2.4-2.1s2.1-0.2 3.2 0.3 1.8 1.2 2.1 2.3 0.3 2.1-0.2 3.2l-0.2 0.3-1.6 2.7-1.7 2.6-1.6 2.5c-0.3 0.5-0.6 0.9-0.8 1.4s-0.5 0.9-0.8 1.3c-1.1 1.8-2.3 3.5-3.4 5.2s-2.3 3.4-3.5 5.1c-0.6 0.8-1.2 1.7-1.8 2.6s-1.2 1.7-1.8 2.6l-3.6 4.9c-0.6 0.8-1.3 1.7-1.9 2.5-0.7 0.8-1.4 1.6-2.1 2.5-0.7 0.8-1.4 1.6-2.1 2.4s-1.4 1.5-2.3 2.3c-1.6 1.7-3.3 3.1-5.1 4.3l-1.5 1-1.7 0.9-1.8 0.7c-0.4 0.2-0.7 0.3-1.1 0.3-0.3 0.1-0.7 0.1-1.1 0.1-0.3 0.1-0.7 0.1-1.3 0.1h-1c-0.1 0-0.1 0-0.2-0.1 0 0-0.1-0.1-0.2-0.1-1-0.2-1.9-0.4-2.7-0.8-0.8-0.5-1.6-1.1-2.3-1.8-0.3-0.4-0.6-0.7-0.8-1s-0.5-0.6-0.7-1-0.3-0.7-0.5-1-0.3-0.6-0.5-1l-0.6-1.9c-0.2-0.6-0.3-1.2-0.3-1.8-0.1-0.6-0.2-1.2-0.2-1.8-0.2-1.1-0.2-2.3-0.3-3.4 0-1.1 0-2.2 0.1-3.3 0-0.6 0-1.2 0.1-1.7 0-0.5 0.1-1 0.1-1.7l0.3-3.2c0.2-2.2 0.5-4.4 0.9-6.4 0.3-2.1 0.8-4.2 1.3-6.2 0.9-4.3 2.2-8.5 3.9-12.4 0.5-1.1 0.9-2.1 1.4-3.1s1-2 1.6-3.1l0.9-1.6 1-1.5c0.4-0.6 0.8-1.2 1.2-1.7s0.9-1 1.4-1.5c0.5-0.7 1.1-1.2 1.7-1.6 0.4-0.3 0.7-0.6 1.1-0.9 0.3-0.3 0.8-0.5 1.3-0.7 0.9-0.5 2.1-1 3.4-1.4 0.2 0 0.3 0 0.5-0.1 0.2 0 0.4-0.1 0.5-0.1 0.2-0.1 0.3-0.1 0.6-0.1h1.3c0.3 0 0.5 0 0.7 0.1 0.3 0 0.8 0.1 1.4 0.2 0.9 0.2 1.9 0.6 2.8 1.3s1.6 1.3 2.2 1.9c0.2 0.2 0.3 0.3 0.4 0.5s0.2 0.4 0.3 0.5l0.6 0.9 0.8 1.8 0.3 1.5 0.2 1.4c0.1 0.4 0.1 0.8 0.1 1.1v1.1c0 1.4-0.1 2.7-0.3 3.9-0.2 0.6-0.3 1.2-0.4 1.8s-0.2 1.1-0.4 1.7c-0.2 1-0.5 2.1-0.9 3.3-0.3 0.5-0.5 1-0.6 1.5l-0.7 1.6c-0.3 0.9-0.7 1.9-1.3 3l-0.7 1.5-0.3 0.8-0.3 0.8c-1.1 2.1-2.3 4.1-3.8 6-0.4 0.5-0.8 0.9-1.1 1.4-0.4 0.5-0.8 1-1.3 1.4l-1.4 1.3-1.7 1.3-1.9 1c-0.8 0.4-1.7 0.6-2.6 0.7h-1.6c-0.6-0.2-1.2-0.3-1.7-0.6-0.2 0-0.4-0.1-0.6-0.2l-0.7 2.4-0.6 2.6zm4.4-12.6c0.1 0.2 0.1 0.5 0.1 0.7 0.2-0.1 0.2-0.2 0.3-0.2 0-0.1 0.1-0.2 0.3-0.3 0.6-0.5 1.1-1 1.4-1.6 0.4-0.5 0.8-1.2 1.3-2.1 0.4-0.8 0.7-1.6 0.9-2.4s0.4-1.7 0.6-2.5c0-0.1 0-0.2 0.1-0.2 0-0.1 0.1-0.2 0.1-0.3v-0.3l0.1-0.3 0.2-1.5 0.3-2.9c0-0.2 0-0.2 0.1-0.3 0 0 0.1-0.1 0.1-0.3l-0.3 0.7c-0.5 0.8-0.9 1.7-1.3 2.5s-0.8 1.6-1.2 2.5l-1.3 2.6-1 2.6-0.8 1.9c0 0.4 0 0.7 0.1 1-0.2 0.2-0.1 0.4-0.1 0.7z"/>
	<path d="m709.9 106.1l10.9-22.8 0.1-0.5v0.2l0.7-1.4c0.8-1.7 2.1-2.9 3.9-3.6 1.7-0.6 3.5-0.6 5.2 0.3 1.5 0.8 2.6 1.9 3.3 3.4s0.8 3 0.5 4.5l-0.5 1.7-1.6 3.6-1.6 3.8-3.1 7.5c-1.1 2.5-2.1 5-3.1 7.5l-3 7.5-0.7 1.7c1.5-2.1 3.1-4.1 4.7-6 1.6-2 3.3-4 5.1-5.9 0.9-1 1.8-2 2.7-2.9s1.8-1.9 2.7-2.8l2.9-2.7 1.4-1.4 0.8-0.7 0.6-0.6h0.1l0.1-0.1c1.5-1.3 3.3-1.9 5.3-1.7s3.7 1 5 2.5c0.9 1.1 1.5 2.2 1.7 3.5s0.1 2.5-0.4 3.8c-0.6 1-1 1.6-1.1 1.8-0.2 0.2-0.3 0.4-0.5 0.6-0.5 0.5-0.8 0.8-0.9 1.1h0.1l-0.1 0.1h-0.1l-0.1 0.1c-0.4 0.4-0.7 0.8-1 1.3s-0.6 0.9-0.9 1.3c-1.3 1.6-2.5 3.4-3.5 5.5-0.5 0.8-1 1.7-1.5 2.9-0.3 0.6-0.5 1.1-0.6 1.4-0.2 0.3-0.3 0.8-0.5 1.4-0.2 0.5-0.3 0.9-0.3 1.3-0.1 0.2-0.1 0.3-0.1 0.6 0.2-0.2 0.3-0.2 0.6-0.2 1 0 2.1-0.3 3.4-0.9s2.6-1.4 3.9-2.4 2.6-2.2 3.8-3.6 2.2-2.9 3.1-4.4l1.5-2.8 0.7-1.6 0.3-0.7 0.1-0.5v-0.1c0.1-0.1 0.1-0.2 0.1-0.2 0.2-1.1 0.8-1.9 1.7-2.5s1.9-0.7 3-0.5 1.9 0.8 2.5 1.7 0.7 1.9 0.4 3c-0.1 0.5-0.3 1-0.7 1.5l-0.2 0.3-1.1 1.5-1 1.5-2.2 2.8c-3.2 4.3-6.5 7.7-9.9 10.3s-6.7 4-10.1 4c-0.2 0-0.5 0-0.7 0.1-0.3 0-0.5 0.1-0.7 0.1l-0.9-0.2c-0.2 0-0.6-0.1-1-0.2-0.6-0.3-1.2-0.8-1.8-1.4-0.4-0.5-0.7-1.1-1-1.6l-0.5-1.5c-0.2-0.5-0.2-0.9-0.2-1.3s0-0.8 0-1.2v-1.8c-1.1 0.9-2.1 1.9-3.1 2.8l-3 3c-1.7 1.7-3.4 3.5-5 5.3s-3.2 3.6-4.7 5.5c-3 3.9-5.7 7.8-8.1 11.9-0.4 0.8-1 1.4-1.9 1.8s-1.7 0.4-2.6 0c-0.7-0.3-1.2-0.8-1.7-1.4-0.4-0.6-0.6-1.3-0.4-2.1v-0.3c0.2-1.5 0.3-3 0.5-4.3 0.2-1.4 0.4-2.7 0.6-4.1 0.3-1.4 0.6-2.7 0.8-4.1s0.5-2.7 0.9-4.1c0.6-2.7 1.2-5.4 1.9-8.1 0.6-2.7 1.3-5.3 2-8l0.9-3.1c-0.5-0.1-1.1-0.4-1.7-0.9-0.7-0.6-1.1-1.3-1.3-2.1-0.2-1.1-0.1-1.9 0.2-2.7zm31.5 17.6c0.1 0.1 0.2 0.1 0.2 0.1h0.1v-0.1h-0.3z"/>
</g>
</svg>